<svg width="35" height="35" viewBox="0 0 35 35" fill="none" xmlns="http://www.w3.org/2000/svg">
<path d="M34.2962 23.7344C34.6787 22.8231 33.5856 22.0469 32.6688 22.4519C30.8361 23.2563 28.8559 23.6701 26.8544 23.6669C19.0075 23.6669 12.6475 17.4344 12.6475 9.74499C12.6446 7.14876 13.3822 4.60555 14.7737 2.41374C15.3062 1.57374 14.6669 0.411239 13.6919 0.658739C6.175 2.57686 0.625 9.27436 0.625 17.2412C0.625 26.7044 8.45313 34.375 18.1112 34.375C25.4237 34.375 31.6863 29.9781 34.2962 23.7344Z" fill="#969696"/>
<path d="M24.2707 0.818104C23.277 0.154354 22.092 1.33935 22.7538 2.3331L23.9351 4.10498C24.4143 4.82341 24.67 5.66765 24.67 6.53123C24.67 7.39481 24.4143 8.23905 23.9351 8.95748L22.7538 10.7294C22.092 11.7231 23.2788 12.9081 24.2726 12.2444L26.0426 11.0631C26.761 10.5839 27.6053 10.3282 28.4688 10.3282C29.3324 10.3282 30.1766 10.5839 30.8951 11.0631L32.667 12.2444C33.6607 12.9081 34.8457 11.7231 34.182 10.7294L33.0007 8.95748C32.5215 8.23905 32.2658 7.39481 32.2658 6.53123C32.2658 5.66765 32.5215 4.82341 33.0007 4.10498L34.182 2.3331C34.8457 1.33935 33.6607 0.154354 32.6651 0.818104L30.8951 1.99935C30.1766 2.47854 29.3324 2.73426 28.4688 2.73426C27.6053 2.73426 26.761 2.47854 26.0426 1.99935L24.2707 0.818104Z" fill="#969696"/>
</svg>
