<svg width="38" height="36" viewBox="0 0 38 36" fill="none" xmlns="http://www.w3.org/2000/svg">
<path d="M19.3734 25.0041C22.2519 25.0041 24.5854 22.6274 24.5854 19.6956C24.5854 16.7638 22.2519 14.3871 19.3734 14.3871C16.4949 14.3871 14.1614 16.7638 14.1614 19.6956C14.1614 22.6274 16.4949 25.0041 19.3734 25.0041Z" stroke="#F1F1F1" stroke-width="2.5"/>
<path d="M15.513 33.8513H23.2338C28.656 33.8513 31.368 33.8513 33.3156 32.5508C34.1559 31.9898 34.8797 31.2659 35.4456 30.4203C36.7468 28.4738 36.7468 25.7611 36.7468 20.3393C36.7468 14.9158 36.7468 12.2049 35.4456 10.2584C34.8797 9.41278 34.1559 8.68885 33.3156 8.12791C32.0647 7.29093 30.4976 6.99188 28.0983 6.88571C26.9534 6.88571 25.9684 6.01865 25.7442 4.89501C25.573 4.07195 25.128 3.33436 24.4844 2.80689C23.8409 2.27943 23.0383 1.99444 22.2122 2.00008H16.5346C14.8181 2.00008 13.3396 3.2122 13.0026 4.89501C12.7785 6.01865 11.7934 6.88571 10.6485 6.88571C8.25096 6.99188 6.68387 7.2927 5.43125 8.12791C4.59145 8.68896 3.86829 9.41289 3.30301 10.2584C2 12.2049 2 14.9158 2 20.3393C2 25.7611 2 28.472 3.30127 30.4203C3.86417 31.2625 4.5869 31.9863 5.43125 32.5508C7.37881 33.8513 10.0908 33.8513 15.513 33.8513Z" stroke="#F1F1F1" stroke-width="2.5"/>
<path d="M31.5347 14.3871H29.7974" stroke="#F1F1F1" stroke-width="2.5" stroke-linecap="round"/>
</svg>
