<svg width="40" height="41" viewBox="0 0 40 41" fill="none" xmlns="http://www.w3.org/2000/svg">
<g clip-path="url(#clip0_139_2205)">
<path d="M1.48145 20.5C1.48145 11.7703 1.48145 7.40552 4.19256 4.69256C6.90737 1.98145 11.2703 1.98145 20 1.98145C28.7296 1.98145 33.0944 1.98145 35.8055 4.69256C38.5185 7.40737 38.5185 11.7703 38.5185 20.5C38.5185 29.2296 38.5185 33.5944 35.8055 36.3055C33.0963 39.0185 28.7296 39.0185 20 39.0185C11.2703 39.0185 6.90552 39.0185 4.19256 36.3055C1.48145 33.5963 1.48145 29.2296 1.48145 20.5Z" stroke="#F1F1F1" stroke-width="2.5"/>
<path d="M32.108 14.2679C32.0577 14.2175 31.9946 14.1817 31.9255 14.1645C31.8564 14.1472 31.7839 14.149 31.7158 14.1699C30.9679 14.396 30.1727 14.415 29.4149 14.2247C28.6571 14.0345 27.9651 13.6422 27.4126 13.0896C26.8601 12.537 26.4679 11.8449 26.2777 11.0869C26.0875 10.3289 26.1064 9.53355 26.3325 8.78552C26.3535 8.71736 26.3555 8.64476 26.3383 8.57555C26.3212 8.50633 26.2854 8.4431 26.235 8.39267C26.1846 8.34224 26.1214 8.30651 26.0522 8.28933C25.983 8.27214 25.9104 8.27415 25.8423 8.29514C24.8083 8.61195 23.9005 9.24686 23.2482 10.1095C22.6777 10.8671 22.3298 11.7688 22.2434 12.7132C22.157 13.6577 22.3356 14.6075 22.7592 15.4561C23.1828 16.3046 23.8346 17.0181 24.6412 17.5166C25.4479 18.0151 26.3776 18.2786 27.3258 18.2777C28.4321 18.2812 29.5089 17.9215 30.391 17.2538C31.2535 16.6014 31.8883 15.6934 32.2051 14.6593C32.2258 14.5913 32.2277 14.5191 32.2106 14.4502C32.1935 14.3813 32.1581 14.3183 32.108 14.2679ZM29.9194 16.6271C29.0886 17.253 28.0598 17.5576 27.0223 17.485C25.9848 17.4123 25.0085 16.9672 24.2731 16.2317C23.5376 15.4962 23.0926 14.5197 23.0198 13.482C22.9471 12.4443 23.2516 11.4152 23.8772 10.5842C24.2849 10.0458 24.8118 9.60938 25.4167 9.30924C25.3822 9.55111 25.3649 9.7951 25.3647 10.0394C25.3662 11.3916 25.9038 12.6879 26.8597 13.644C27.8156 14.6001 29.1117 15.1379 30.4636 15.1393C30.7083 15.1393 30.9528 15.1219 31.1951 15.0874C30.8947 15.6925 30.458 16.2195 29.9194 16.6271Z" fill="#F1F1F1" stroke="#F1F1F1" stroke-width="1.5"/>
<path d="M1.48145 21.4259L4.72589 18.587C5.53911 17.876 6.59208 17.5006 7.67167 17.5367C8.75126 17.5728 9.7768 18.0177 10.5407 18.7814L18.4852 26.7259C19.1016 27.3423 19.9158 27.7214 20.7843 27.7966C21.6528 27.8718 22.52 27.6382 23.2333 27.137L23.787 26.7481C24.8159 26.0255 26.0594 25.6732 27.3145 25.7489C28.5695 25.8246 29.7617 26.3238 30.6963 27.1648L36.6666 32.537" stroke="#F1F1F1" stroke-width="2.5" stroke-linecap="round"/>
</g>
<defs>
<clipPath id="clip0_139_2205">
<rect width="40" height="40" fill="white" transform="translate(0 0.5)"/>
</clipPath>
</defs>
</svg>
